<svg xmlns="http://www.w3.org/2000/svg" version="1.1" xmlns:xlink="http://www.w3.org/1999/xlink" xmlns:svgjs="http://svgjs.dev/svgjs" width="1000" height="623" viewBox="0 0 1000 623"><g transform="matrix(1,0,0,1,-0.6060606060606233,0.2522267206477409)"><svg viewBox="0 0 396 247" data-background-color="#ffffff" preserveAspectRatio="xMidYMid meet" height="623" width="1000" xmlns="http://www.w3.org/2000/svg" xmlns:xlink="http://www.w3.org/1999/xlink"><g id="tight-bounds" transform="matrix(1,0,0,1,0.2400000000000091,-0.09999999999999432)"><svg viewBox="0 0 395.52 247.2" height="247.2" width="395.52"><g><svg></svg></g><g><svg viewBox="0 0 395.52 247.2" height="247.2" width="395.52"><g transform="matrix(1,0,0,1,75.54432,103.87626948923076)"><svg viewBox="0 0 244.43135999999998 39.44746102153846" height="39.44746102153846" width="244.43135999999998"><g><svg viewBox="0 0 244.43135999999998 39.44746102153846" height="39.44746102153846" width="244.43135999999998"><g><svg viewBox="0 0 244.43135999999998 39.44746102153846" height="39.44746102153846" width="244.43135999999998"><g><svg viewBox="0 0 244.43135999999998 39.44746102153846" height="39.44746102153846" width="244.43135999999998"><g id="textblocktransform"><svg viewBox="0 0 244.43135999999998 39.44746102153846" height="39.44746102153846" width="244.43135999999998" id="textblock"><g><svg viewBox="0 0 244.43135999999998 39.44746102153846" height="39.44746102153846" width="244.43135999999998"><g transform="matrix(1,0,0,1,0,0)"><svg width="244.43135999999998" viewBox="1.0499999523162842 -45.150001525878906 324.96002197265625 52.45000076293945" height="39.44746102153846" data-palette-color="#ed1703"><path d="M12.1 0.4Q6.25 0.4 3.65-2.5 1.05-5.4 1.05-11.85L1.05-11.85 1.05-16.05 9.5-16.05 9.5-10.7Q9.5-7.5 11.55-7.5L11.55-7.5Q12.7-7.5 13.15-8.18 13.6-8.85 13.6-10.45L13.6-10.45Q13.6-12.55 13.1-13.93 12.6-15.3 11.83-16.23 11.05-17.15 9.05-19.1L9.05-19.1 5.35-22.8Q1.05-27 1.05-32.1L1.05-32.1Q1.05-37.6 3.58-40.48 6.1-43.35 10.95-43.35L10.95-43.35Q16.75-43.35 19.3-40.28 21.85-37.2 21.85-30.65L21.85-30.65 13.1-30.65 13.05-33.6Q13.05-34.45 12.58-34.95 12.1-35.45 11.25-35.45L11.25-35.45Q10.25-35.45 9.75-34.9 9.25-34.35 9.25-33.4L9.25-33.4Q9.25-31.3 11.65-29.05L11.65-29.05 16.65-24.25Q18.4-22.55 19.55-21.03 20.7-19.5 21.4-17.43 22.1-15.35 22.1-12.5L22.1-12.5Q22.1-6.15 19.78-2.88 17.45 0.4 12.1 0.4L12.1 0.4ZM31.45 0.4Q27.2 0.4 25.62-2.43 24.05-5.25 24.05-10.5L24.05-10.5Q24.05-14.8 25.17-17.1 26.3-19.4 28.3-20.48 30.3-21.55 34.4-22.85L34.4-22.85 36.8-23.65 36.8-23.75 36.8-27.4Q36.8-28.85 36.22-29.63 35.65-30.4 34.85-30.4L34.85-30.4Q34.15-30.4 33.62-29.75 33.1-29.1 33.1-28L33.1-28 33.1-25.8 24.6-25.8 24.6-27Q24.6-32.4 27.12-34.7 29.65-37 35.35-37L35.35-37Q39.9-37 42.75-34.63 45.6-32.25 45.6-27.9L45.6-27.9 45.6 0 36.9 0 36.9-4.35Q36.25-2.1 34.82-0.85 33.4 0.4 31.45 0.4L31.45 0.4ZM34.9-6.4Q35.9-6.4 36.32-7.23 36.75-8.05 36.75-9.25L36.75-9.25 36.75-19.45Q34.8-18.7 33.87-17.55 32.95-16.4 32.95-14.35L32.95-14.35 32.95-9.65Q32.95-6.4 34.9-6.4L34.9-6.4ZM48.95 0L48.95-36.6 57.7-36.6 57.7-32.55Q58.35-34.7 59.97-35.88 61.6-37.05 64-37.05L64-37.05 64-29.75Q62.15-29.75 59.92-29.23 57.7-28.7 57.7-28L57.7-28 57.7 0 48.95 0ZM73.34 0.4Q70.14 0.4 68.52-1.13 66.89-2.65 66.37-5.18 65.84-7.7 65.84-11.65L65.84-11.65 65.94-28.15Q65.94-32.05 67.92-34.52 69.89-37 73.49-37L73.49-37Q77.04-37 78.79-34.65L78.79-34.65 78.79-43.2 87.54-43.2 87.54 0 78.79 0 78.79-3.9Q78.04-1.75 76.77-0.68 75.49 0.4 73.34 0.4L73.34 0.4ZM76.69-6.45Q77.99-6.45 78.39-7.73 78.79-9 78.79-11.15L78.79-11.15 78.79-12.7 78.79-26.45Q78.79-28.05 78.34-29.15 77.89-30.25 76.74-30.25L76.74-30.25Q75.44-30.25 75.02-29.23 74.59-28.2 74.59-26.45L74.59-26.45 74.59-11.05Q74.59-6.45 76.69-6.45L76.69-6.45ZM97.69 0.4Q93.44 0.4 91.87-2.43 90.29-5.25 90.29-10.5L90.29-10.5Q90.29-14.8 91.42-17.1 92.54-19.4 94.54-20.48 96.54-21.55 100.64-22.85L100.64-22.85 103.04-23.65 103.04-23.75 103.04-27.4Q103.04-28.85 102.47-29.63 101.89-30.4 101.09-30.4L101.09-30.4Q100.39-30.4 99.87-29.75 99.34-29.1 99.34-28L99.34-28 99.34-25.8 90.84-25.8 90.84-27Q90.84-32.4 93.37-34.7 95.89-37 101.59-37L101.59-37Q106.14-37 108.99-34.63 111.84-32.25 111.84-27.9L111.84-27.9 111.84 0 103.14 0 103.14-4.35Q102.49-2.1 101.07-0.85 99.64 0.4 97.69 0.4L97.69 0.4ZM101.14-6.4Q102.14-6.4 102.57-7.23 102.99-8.05 102.99-9.25L102.99-9.25 102.99-19.45Q101.04-18.7 100.12-17.55 99.19-16.4 99.19-14.35L99.19-14.35 99.19-9.65Q99.19-6.4 101.14-6.4L101.14-6.4ZM115.19 0L115.19-36.6 123.94-36.6 123.94-32.55Q124.59-34.7 126.21-35.88 127.84-37.05 130.24-37.05L130.24-37.05 130.24-29.75Q128.39-29.75 126.16-29.23 123.94-28.7 123.94-28L123.94-28 123.94 0 115.19 0ZM156.53 0L147.93 0 147.93-34.7 142.83-34.7 142.83-42.95 161.63-42.95 161.63-34.7 156.53-34.7 156.53 0ZM169.58 0.4Q165.33 0.4 163.76-2.43 162.18-5.25 162.18-10.5L162.18-10.5Q162.18-14.8 163.31-17.1 164.43-19.4 166.43-20.48 168.43-21.55 172.53-22.85L172.53-22.85 174.93-23.65 174.93-23.75 174.93-27.4Q174.93-28.85 174.36-29.63 173.78-30.4 172.98-30.4L172.98-30.4Q172.28-30.4 171.76-29.75 171.23-29.1 171.23-28L171.23-28 171.23-25.8 162.73-25.8 162.73-27Q162.73-32.4 165.26-34.7 167.78-37 173.48-37L173.48-37Q178.03-37 180.88-34.63 183.73-32.25 183.73-27.9L183.73-27.9 183.73 0 175.03 0 175.03-4.35Q174.38-2.1 172.96-0.85 171.53 0.4 169.58 0.4L169.58 0.4ZM173.03-6.4Q174.03-6.4 174.46-7.23 174.88-8.05 174.88-9.25L174.88-9.25 174.88-19.45Q172.93-18.7 172.01-17.55 171.08-16.4 171.08-14.35L171.08-14.35 171.08-9.65Q171.08-6.4 173.03-6.4L173.03-6.4ZM187.08 0L187.08-36.6 195.83-36.6 195.83-32.55Q196.48-34.7 198.1-35.88 199.73-37.05 202.13-37.05L202.13-37.05 202.13-29.75Q200.28-29.75 198.05-29.23 195.83-28.7 195.83-28L195.83-28 195.83 0 187.08 0ZM212.98-39.05L204.23-39.05 204.23-45.15 212.98-45.15 212.98-39.05ZM212.98 0L204.23 0 204.23-36.6 212.98-36.6 212.98 0ZM228.97 7.3L228.97-2.2Q228.12-1.05 226.85-0.33 225.57 0.4 223.97 0.4L223.97 0.4Q220.57 0.4 218.87-1.07 217.17-2.55 216.65-5.08 216.12-7.6 216.12-11.75L216.12-11.75 216.12-26.25Q216.12-31.3 217.82-34.15 219.52-37 223.72-37L223.72-37Q227.07-37 228.97-34.65L228.97-34.65 228.97-36.6 237.87-36.6 237.87 7.3 228.97 7.3ZM226.87-6.4Q228.12-6.4 228.55-7.43 228.97-8.45 228.97-10.3L228.97-10.3 228.97-26.35Q228.97-30.15 226.92-30.15L226.92-30.15Q225.67-30.15 225.32-29.13 224.97-28.1 224.97-26.25L224.97-26.25 224.97-10.7Q224.97-8.6 225.32-7.5 225.67-6.4 226.87-6.4L226.87-6.4ZM260.47 0L252.12 0 256.27-42.95 270.82-42.95 274.92 0 266.77 0 266.17-6.95 260.97-6.95 260.47 0ZM263.22-35.65L261.62-13.8 265.52-13.8 263.62-35.65 263.22-35.65ZM294.57 0L276.32 0 276.32-5.35 285.42-29.7 276.72-29.7 276.72-36.6 294.47-36.6 294.47-30.65 285.87-6.55 294.57-6.55 294.57 0ZM305.36-39.05L296.61-39.05 296.61-45.15 305.36-45.15 305.36-39.05ZM305.36 0L296.61 0 296.61-36.6 305.36-36.6 305.36 0ZM326.01 0L307.76 0 307.76-5.35 316.86-29.7 308.16-29.7 308.16-36.6 325.91-36.6 325.91-30.65 317.31-6.55 326.01-6.55 326.01 0Z" opacity="1" transform="matrix(1,0,0,1,0,0)" fill="#ed1703" class="undefined-text-0" data-fill-palette-color="primary" id="text-0"></path></svg></g></svg></g></svg></g></svg></g></svg></g></svg></g></svg></g><path d="M183.142 97.876L183.142 35.447 6.836 35.447 6.836 211.753 183.142 211.753 183.142 149.324 179.585 149.324 179.585 208.196 10.393 208.196 10.393 39.004 179.585 39.004 179.585 97.876Z" fill="#ed1703" stroke="transparent" data-fill-palette-color="primary"></path></svg></g><defs></defs></svg><rect width="395.52" height="247.2" fill="none" stroke="none" visibility="hidden"></rect></g></svg></g></svg>