<svg xmlns="http://www.w3.org/2000/svg" version="1.1" xmlns:xlink="http://www.w3.org/1999/xlink" xmlns:svgjs="http://svgjs.dev/svgjs" width="1000" height="474" viewBox="0 0 1000 474"><g transform="matrix(1,0,0,1,-0.6060606060606233,-0.006576422345148103)"><svg viewBox="0 0 396 188" data-background-color="#ffffff" preserveAspectRatio="xMidYMid meet" height="474" width="1000" xmlns="http://www.w3.org/2000/svg" xmlns:xlink="http://www.w3.org/1999/xlink"><g id="tight-bounds" transform="matrix(1,0,0,1,0.2400000000000091,0.002608370044072217)"><svg viewBox="0 0 395.52 187.99478325991186" height="187.99478325991186" width="395.52"><g><svg viewBox="0 0 395.52 187.99478325991186" height="187.99478325991186" width="395.52"><g><svg viewBox="0 0 395.52 187.99478325991186" height="187.99478325991186" width="395.52"><g id="textblocktransform"><svg viewBox="0 0 395.52 187.99478325991186" height="187.99478325991186" width="395.52" id="textblock"><g><svg viewBox="0 0 395.52 187.99478325991186" height="187.99478325991186" width="395.52"><rect width="395.52" height="187.99478325991186" x="0" y="0" opacity="1" fill="#ff0000" data-fill-palette-color="tertiary"></rect><g transform="matrix(1,0,0,1,23.607599999999998,23.607599999999998)"><svg width="348.3048" viewBox="2.1500000953674316 -35.900001525878906 90.79999542236328 36.70000076293945" height="140.77958325991185" data-palette-color="#ffffff"><path d="M26-23.8L22.7-23.8Q22.25-26.6 21.1-28.48 19.95-30.35 18.18-31.3 16.4-32.25 14.05-32.2L14.05-32.2Q11.9-32.2 10.28-31 8.65-29.8 8.65-27.9L8.65-27.9Q8.65-26.35 9.53-25.2 10.4-24.05 12.2-23.05 14-22.05 16.75-20.9L16.75-20.9Q18.65-20.15 20.65-19.15 22.65-18.15 24.35-16.78 26.05-15.4 27.1-13.58 28.15-11.75 28.15-9.3L28.15-9.3Q28.15-6.35 26.55-4.05 24.95-1.75 22.08-0.48 19.2 0.8 15.35 0.8L15.35 0.8Q13.35 0.8 11.03 0.18 8.7-0.45 6.65-1.65L6.65-1.65 6.8 0.45 2.95 0.45 2.95-11.25 6.25-11.25Q6.95-7.05 9.47-4.93 12-2.8 15.5-2.8L15.5-2.8Q17.3-2.8 18.65-3.45 20-4.1 20.75-5.18 21.5-6.25 21.5-7.5L21.5-7.5Q21.5-9.25 20.28-10.4 19.05-11.55 17.23-12.35 15.4-13.15 13.5-13.9L13.5-13.9Q11.1-14.9 9.03-16.03 6.95-17.15 5.4-18.6 3.85-20.05 3-21.93 2.15-23.8 2.15-26.25L2.15-26.25Q2.15-27.8 2.75-29.48 3.35-31.15 4.7-32.58 6.05-34 8.3-34.9 10.55-35.8 13.85-35.8L13.85-35.8Q15.85-35.8 18.23-35.2 20.6-34.6 22.3-33.4L22.3-33.4 22.1-35.45 26-35.45 26-23.8ZM61.55-23.7L58.25-23.7Q58.25-26.4 57.5-28.18 56.75-29.95 55.37-30.83 54-31.7 52.1-31.65L52.1-31.65 49.7-31.65 49.7-8.2Q49.7-6.85 49.65-5.6 49.6-4.35 49.5-3.7L49.5-3.7Q50.35-3.8 51.67-3.83 53-3.85 53.5-3.85L53.5-3.85 53.5 0 38.9 0 38.9-3.3Q40.05-3.35 40.82-3.6 41.6-3.85 42.02-4.75 42.45-5.65 42.45-7.65L42.45-7.65 42.45-31.6 40.15-31.6Q37.3-31.55 35.65-29.65 34-27.75 34-23.7L34-23.7 30.7-23.7 30.95-35 61.25-35 61.55-23.7ZM70.65 0L59.95 0 59.95-3.45Q61.35-3.45 62.2-4.25 63.05-5.05 63.62-6.35 64.2-7.65 64.75-9.15L64.75-9.15 74.5-35.9 78-35.9 88.65-8.65Q88.95-7.9 89.45-6.38 89.95-4.85 90.05-3.7L90.05-3.7Q90.9-3.8 91.67-3.83 92.45-3.85 92.95-3.85L92.95-3.85 92.95 0 79.5 0 79.5-3.3Q80.9-3.3 81.42-3.88 81.95-4.45 81.9-5.45 81.84-6.45 81.34-7.7L81.34-7.7 80.34-10.45 69.5-10.25 68.7-7.9Q68.45-7.25 67.97-5.98 67.5-4.7 67.09-3.85L67.09-3.85Q67.9-3.95 69.02-3.98 70.15-4 70.65-4L70.65-4 70.65 0ZM73-20.5L70.75-14 79.09-14 76.8-20.25Q76.15-22.05 75.65-23.88 75.15-25.7 74.9-27.1L74.9-27.1 74.84-27.1Q74.65-26.25 74.25-24.55 73.84-22.85 73-20.5L73-20.5Z" opacity="1" transform="matrix(1,0,0,1,0,0)" fill="#ffffff" class="undefined-text-0" data-fill-palette-color="quaternary" id="text-0"></path></svg></g></svg></g></svg></g></svg></g><g></g></svg></g><defs></defs></svg><rect width="395.52" height="187.99478325991186" fill="none" stroke="none" visibility="hidden"></rect></g></svg></g></svg>